<svg width="250" height="46" viewBox="0 0 250 46" fill="none" xmlns="http://www.w3.org/2000/svg">
<g clip-path="url(#clip0_1554_75526)">
<path d="M20.0358 0.0618839H31.336V35.9543H20.0358V19.5552H11.2792V36.0574H0.0625V0.0618839H11.3418V15.0377H20.0984L20.0358 0.0618839ZM62.7345 15.7184C63.7339 17.6448 64.3234 19.7534 64.4669 21.9141C64.6103 24.0747 64.3046 26.2416 63.5685 28.2807C62.4835 31.3589 60.2442 33.9068 57.3138 35.3973C54.821 36.5111 52.1042 37.0473 49.3703 36.965C46.0497 37.0866 42.7768 36.1542 40.03 34.304C37.5645 32.5336 35.7786 29.9885 34.9637 27.0843C34.3447 24.9711 34.2012 22.7494 34.5434 20.5755C34.8856 18.4015 35.7051 16.3282 36.9443 14.5013C38.031 13.0521 39.4014 11.8341 40.9739 10.9198C42.5463 10.0055 44.2886 9.41359 46.097 9.17937C47.0649 8.98975 48.0501 8.89989 49.0367 8.91121C51.2582 8.81729 53.4779 9.13203 55.5833 9.83946C58.6312 10.8023 61.1904 12.884 62.7345 15.6565V15.7184ZM53.2065 19.3283C53.2298 17.8727 53.0114 16.4233 52.5602 15.0377C52.0181 13.6969 51.0591 12.191 49.4329 12.191H48.8699C47.9943 12.3561 47.1812 13.2637 46.4098 14.8933C45.785 17.0848 45.559 19.3688 45.7426 21.6386C45.7426 22.5256 45.7426 23.4951 45.7426 24.5265C45.7426 29.2502 46.0762 30.7148 47.1186 32.1794C47.3411 32.5581 47.6417 32.886 48.001 33.142C48.3602 33.3979 48.77 33.576 49.2035 33.6646C49.5411 33.6995 49.8824 33.6644 50.2055 33.5614C50.5286 33.4584 50.8265 33.2898 51.0799 33.0664C52.3608 31.632 53.0979 29.8017 53.1648 27.8888C53.2482 27.0224 53.2482 22.7525 53.2065 19.2664V19.3283ZM91.0891 9.88072C89.5599 9.27787 87.9197 8.99941 86.2748 9.06337C84.63 9.12733 83.017 9.53228 81.5403 10.252C80.1457 11.0158 78.9306 12.0633 77.9751 13.3256V9.7157H67.5506V35.9543H77.9751V17.1005C78.581 15.9817 79.5199 15.0743 80.6646 14.5013C81.247 14.1791 81.9154 14.0419 82.5793 14.1083C83.2432 14.1748 83.8703 14.4416 84.3757 14.8726C84.9883 15.6619 85.2918 16.6436 85.2305 17.6368V35.9543H95.5508V15.9865C95.473 14.6462 95.0125 13.3552 94.2227 12.2634C93.4329 11.1717 92.3463 10.324 91.0891 9.81884V9.88072ZM126.866 15.9453C128.112 18.6166 128.684 21.547 128.534 24.4852H109.77V29.8072C109.87 30.3885 110.075 30.9474 110.374 31.4574C110.812 32.0144 112.313 34.2009 117.421 33.3964C123.092 32.5094 122.946 28.487 123.051 28.487H127.533C127.455 30.1398 126.774 31.7084 125.615 32.9014C123.164 35.0718 120.087 36.428 116.817 36.7794C114.533 37.1855 112.191 37.1299 109.93 36.6158C107.668 36.1018 105.536 35.1399 103.661 33.7883C101.676 32.1601 100.189 30.0173 99.3661 27.6C98.2233 23.7691 98.55 19.6557 100.283 16.0484C101.68 13.6744 103.733 11.7438 106.199 10.4832C108.666 9.22266 111.445 8.68448 114.211 8.93184C120.799 9.17937 124.552 11.5309 126.866 15.8834V15.9453ZM117.651 18.6269C117.657 17.4739 117.524 16.3244 117.255 15.2027C117.016 14.3232 116.541 13.5245 115.879 12.8924C115.377 12.412 114.731 12.1075 114.038 12.0255C113.345 11.9435 112.644 12.0886 112.042 12.4386C111.003 13.3142 110.315 14.5289 110.103 15.8628C109.914 17.4646 109.837 19.0774 109.874 20.6897H117.651C117.63 20.4422 117.63 19.8439 117.651 18.6269ZM222.021 15.9247C223.263 18.596 223.822 21.529 223.647 24.4646H205.008V29.7865C205.109 30.3707 205.322 30.9306 205.633 31.4368C206.05 31.9937 207.572 34.1803 212.68 33.3758C218.351 32.4888 218.184 28.4664 218.309 28.4664H222.792C222.703 30.1166 222.023 31.6816 220.874 32.8807C218.412 35.0819 215.312 36.4603 212.013 36.8206C208.323 37.1919 203.09 37.2951 198.878 33.8296C196.889 32.2018 195.394 30.0595 194.563 27.6413C193.42 23.8104 193.746 19.697 195.48 16.0897C196.877 13.7156 198.929 11.785 201.396 10.5245C203.863 9.26391 206.642 8.72574 209.407 8.97309C215.954 9.17937 219.706 11.5309 222.021 15.8834V15.9247ZM212.722 18.6269C212.736 17.4723 212.596 16.3209 212.305 15.2027C212.065 14.3193 211.581 13.5193 210.908 12.8924C210.393 12.4491 209.747 12.1832 209.067 12.1349C208.386 12.0865 207.708 12.2582 207.134 12.6242C206.095 13.4998 205.408 14.7145 205.195 16.0484C204.997 17.6425 204.92 19.2492 204.966 20.8547H212.722C212.722 20.4422 212.722 19.8439 212.722 18.6269ZM189.788 9.7157L185.764 24.4233L181.282 9.7157H172.087L167.918 24.4233L163.31 9.7157H149.091L143.92 22.2161L139.042 9.7157H127.616L138.187 36.5318C138.154 36.8752 138.084 37.214 137.978 37.5426C137.523 39.0254 136.755 40.3962 135.727 41.565C135.403 41.9448 134.984 42.2341 134.512 42.4042C134.041 42.5743 133.532 42.6192 133.037 42.5345C133.409 42.1831 133.706 41.7625 133.913 41.2969C134.199 40.1976 134.049 39.0319 133.496 38.0377C132.998 37.2879 132.267 36.7192 131.413 36.4177C130.558 36.1162 129.628 36.0983 128.763 36.3668C127.671 36.6049 126.715 37.2555 126.1 38.1801C125.484 39.1047 125.258 40.2303 125.469 41.3175C125.719 43.3803 127.137 45.2987 130.66 45.9175C132.035 46.19 133.456 46.1156 134.793 45.7009C136.131 45.2863 137.341 44.545 138.312 43.5453C139.87 41.7203 141.065 39.6207 141.835 37.357L152.865 10.5408L160.704 35.9543H169.565L173.734 20.7309L178.53 35.9543H187.14L194.437 9.7157H189.788ZM226.774 35.9543H236.823V0.0618839H226.774V35.9543ZM239.951 0.0618839V35.9543H250V0.0618839H239.951Z" fill="#D22630"/>
</g>
<defs>
<clipPath id="clip0_1554_75526">
<rect width="250" height="46" fill="white"/>
</clipPath>
</defs>
</svg>
